<svg preserveAspectRatio="none" overflow="visible" style="display: block;" width="24" height="24" viewBox="0 0 24 24" fill="none" xmlns="http://www.w3.org/2000/svg">
<g id="IconDoctor">
<path id="Vector" d="M12.493 8.41699C14.1499 8.41699 15.493 7.07385 15.493 5.41699C15.493 3.76014 14.1499 2.41699 12.493 2.41699C10.8362 2.41699 9.49304 3.76014 9.49304 5.41699C9.49304 7.07385 10.8362 8.41699 12.493 8.41699Z" stroke="#23372F" stroke-width="1.3"/>
<path id="Vector_2" d="M7.49304 20.417V16.417C7.49304 14.207 9.73304 12.417 12.493 12.417C15.253 12.417 17.493 14.207 17.493 16.417V20.417" stroke="#23372F" stroke-width="1.3" stroke-linecap="round"/>
<path id="Vector_3" d="M17.493 21.417C18.8738 21.417 19.993 20.2977 19.993 18.917C19.993 17.5363 18.8738 16.417 17.493 16.417C16.1123 16.417 14.993 17.5363 14.993 18.917C14.993 20.2977 16.1123 21.417 17.493 21.417Z" stroke="#23372F" stroke-width="1.2"/>
<path id="Vector_4" d="M17.493 17.417V20.417" stroke="#23372F" stroke-width="1.1" stroke-linecap="round"/>
<path id="Vector_5" d="M15.993 18.917H18.993" stroke="#23372F" stroke-width="1.1" stroke-linecap="round"/>
</g>
</svg>
