<svg preserveAspectRatio="none" overflow="visible" style="display: block;" width="18.4" height="18.4" viewBox="0 0 18.4 18.4" fill="none" xmlns="http://www.w3.org/2000/svg">
<g id="Group">
<path id="Vector" d="M0.351468 16.3515C-0.117156 16.8202 -0.117156 17.5798 0.351468 18.0485C0.820092 18.5171 1.5799 18.5171 2.04852 18.0485L0.351468 16.3515ZM10.0485 10.0485C10.5171 9.57984 10.5171 8.82016 10.0485 8.35152C9.57984 7.88288 8.82016 7.88288 8.35152 8.35152L10.0485 10.0485ZM8.35152 8.35152C7.88288 8.82016 7.88288 9.57984 8.35152 10.0485C8.82016 10.5171 9.57984 10.5171 10.0485 10.0485L8.35152 8.35152ZM18.0485 2.04853C18.5171 1.5799 18.5171 0.820093 18.0485 0.351468C17.5798 -0.117156 16.8202 -0.117156 16.3515 0.351468L18.0485 2.04853ZM10.0485 8.35152C9.57984 7.88288 8.82016 7.88288 8.35152 8.35152C7.88288 8.82016 7.88288 9.57984 8.35152 10.0485L10.0485 8.35152ZM16.3515 18.0485C16.8202 18.5171 17.5798 18.5171 18.0485 18.0485C18.5171 17.5798 18.5171 16.8202 18.0485 16.3515L16.3515 18.0485ZM8.35152 10.0485C8.82016 10.5171 9.57984 10.5171 10.0485 10.0485C10.5171 9.57984 10.5171 8.82016 10.0485 8.35152L8.35152 10.0485ZM2.04852 0.351468C1.5799 -0.117156 0.820092 -0.117156 0.351468 0.351468C-0.117156 0.820093 -0.117156 1.5799 0.351468 2.04853L2.04852 0.351468ZM2.04852 18.0485L10.0485 10.0485L8.35152 8.35152L0.351468 16.3515L2.04852 18.0485ZM10.0485 10.0485L18.0485 2.04853L16.3515 0.351468L8.35152 8.35152L10.0485 10.0485ZM8.35152 10.0485L16.3515 18.0485L18.0485 16.3515L10.0485 8.35152L8.35152 10.0485ZM10.0485 8.35152L2.04852 0.351468L0.351468 2.04853L8.35152 10.0485L10.0485 8.35152Z" fill="#1A1A2E"/>
</g>
</svg>
